<mxfile host="Electron" modified="2023-06-28T00:34:08.749Z" agent="Mozilla/5.0 (Windows NT 10.0; Win64; x64) AppleWebKit/537.36 (KHTML, like Gecko) draw.io/21.2.1 Chrome/112.0.5615.87 Electron/24.1.2 Safari/537.36" etag="oVuFBgF9LynX1wQwbP5a" version="21.2.1" type="device">
  <diagram name="Page-1" id="b520641d-4fe3-3701-9064-5fc419738815">
    <mxGraphModel dx="1219" dy="1563" grid="1" gridSize="10" guides="1" tooltips="1" connect="1" arrows="1" fold="1" page="1" pageScale="1" pageWidth="1100" pageHeight="850" background="none" math="0" shadow="0">
      <root>
        <mxCell id="0" />
        <mxCell id="1" parent="0" />
        <mxCell id="1vuv9H1feYHXRxS0RQ_D-30" style="edgeStyle=orthogonalEdgeStyle;rounded=0;orthogonalLoop=1;jettySize=auto;html=1;exitX=0.5;exitY=1;exitDx=0;exitDy=0;entryX=0.468;entryY=-0.026;entryDx=0;entryDy=0;entryPerimeter=0;" parent="1" source="1vuv9H1feYHXRxS0RQ_D-1" target="1vuv9H1feYHXRxS0RQ_D-3" edge="1">
          <mxGeometry relative="1" as="geometry" />
        </mxCell>
        <mxCell id="1vuv9H1feYHXRxS0RQ_D-1" value="" style="rounded=1;whiteSpace=wrap;html=1;fontFamily=Lucida Console;" parent="1" vertex="1">
          <mxGeometry x="210" y="25" width="190" height="55" as="geometry" />
        </mxCell>
        <mxCell id="1vuv9H1feYHXRxS0RQ_D-31" style="edgeStyle=orthogonalEdgeStyle;rounded=0;orthogonalLoop=1;jettySize=auto;html=1;exitX=0.5;exitY=1;exitDx=0;exitDy=0;entryX=0.5;entryY=0;entryDx=0;entryDy=0;" parent="1" source="1vuv9H1feYHXRxS0RQ_D-3" edge="1">
          <mxGeometry relative="1" as="geometry">
            <mxPoint x="314.25" y="230" as="targetPoint" />
          </mxGeometry>
        </mxCell>
        <mxCell id="1vuv9H1feYHXRxS0RQ_D-3" value="" style="rounded=0;whiteSpace=wrap;html=1;" parent="1" vertex="1">
          <mxGeometry x="210" y="130" width="205" height="70" as="geometry" />
        </mxCell>
        <mxCell id="1vuv9H1feYHXRxS0RQ_D-5" value="&lt;font size=&quot;1&quot; face=&quot;Times New Roman&quot;&gt;&lt;b style=&quot;font-size: 17px;&quot;&gt;INICIO&lt;/b&gt;&lt;/font&gt;" style="text;html=1;strokeColor=none;fillColor=none;align=center;verticalAlign=middle;whiteSpace=wrap;rounded=0;" parent="1" vertex="1">
          <mxGeometry x="275" y="37.5" width="60" height="30" as="geometry" />
        </mxCell>
        <mxCell id="1vuv9H1feYHXRxS0RQ_D-6" value="&lt;b&gt;&lt;font style=&quot;font-size: 17px;&quot;&gt;Autenticação&lt;/font&gt;&lt;/b&gt;" style="text;html=1;strokeColor=none;fillColor=none;align=center;verticalAlign=middle;whiteSpace=wrap;rounded=0;fontFamily=Times New Roman;fontSize=16;" parent="1" vertex="1">
          <mxGeometry x="247.5" y="150" width="140" height="30" as="geometry" />
        </mxCell>
        <mxCell id="1vuv9H1feYHXRxS0RQ_D-32" style="edgeStyle=orthogonalEdgeStyle;rounded=0;orthogonalLoop=1;jettySize=auto;html=1;exitX=0.5;exitY=1;exitDx=0;exitDy=0;" parent="1" source="ONXTietYf4f_hLQcdqCw-1" edge="1">
          <mxGeometry relative="1" as="geometry">
            <mxPoint x="304" y="450" as="sourcePoint" />
            <mxPoint x="315" y="450" as="targetPoint" />
            <Array as="points">
              <mxPoint x="315" y="450" />
              <mxPoint x="315" y="450" />
            </Array>
          </mxGeometry>
        </mxCell>
        <mxCell id="1vuv9H1feYHXRxS0RQ_D-13" value="" style="rounded=0;whiteSpace=wrap;html=1;" parent="1" vertex="1">
          <mxGeometry x="217.5" y="450" width="202.5" height="80" as="geometry" />
        </mxCell>
        <mxCell id="1vuv9H1feYHXRxS0RQ_D-17" value="" style="rounded=0;whiteSpace=wrap;html=1;" parent="1" vertex="1">
          <mxGeometry x="210" y="810" width="210" height="70" as="geometry" />
        </mxCell>
        <mxCell id="1vuv9H1feYHXRxS0RQ_D-34" style="edgeStyle=orthogonalEdgeStyle;rounded=0;orthogonalLoop=1;jettySize=auto;html=1;exitX=0.5;exitY=1;exitDx=0;exitDy=0;entryX=0.534;entryY=-0.011;entryDx=0;entryDy=0;entryPerimeter=0;" parent="1" source="1vuv9H1feYHXRxS0RQ_D-18" target="1vuv9H1feYHXRxS0RQ_D-17" edge="1">
          <mxGeometry relative="1" as="geometry" />
        </mxCell>
        <mxCell id="1vuv9H1feYHXRxS0RQ_D-18" value="" style="rounded=0;whiteSpace=wrap;html=1;" parent="1" vertex="1">
          <mxGeometry x="216.25" y="680" width="202.5" height="90" as="geometry" />
        </mxCell>
        <mxCell id="1vuv9H1feYHXRxS0RQ_D-20" value="&lt;b&gt;&lt;font style=&quot;font-size: 17px;&quot;&gt;Filtrar por Laboratório&lt;/font&gt;&lt;/b&gt;" style="text;html=1;strokeColor=none;fillColor=none;align=center;verticalAlign=middle;whiteSpace=wrap;rounded=0;fontFamily=Times New Roman;fontSize=16;" parent="1" vertex="1">
          <mxGeometry x="231.25" y="700" width="180" height="50" as="geometry" />
        </mxCell>
        <mxCell id="1vuv9H1feYHXRxS0RQ_D-21" value="&lt;font style=&quot;font-size: 17px;&quot;&gt;&lt;b&gt;Visualizar Reservas&lt;/b&gt;&lt;/font&gt;" style="text;html=1;strokeColor=none;fillColor=none;align=center;verticalAlign=middle;whiteSpace=wrap;rounded=0;fontFamily=Times New Roman;fontSize=16;" parent="1" vertex="1">
          <mxGeometry x="238.75" y="830" width="160" height="30" as="geometry" />
        </mxCell>
        <mxCell id="1vuv9H1feYHXRxS0RQ_D-38" value="" style="rounded=1;whiteSpace=wrap;html=1;" parent="1" vertex="1">
          <mxGeometry x="825" y="470" width="120" height="60" as="geometry" />
        </mxCell>
        <mxCell id="1vuv9H1feYHXRxS0RQ_D-39" value="FIM" style="text;html=1;strokeColor=none;fillColor=none;align=center;verticalAlign=middle;whiteSpace=wrap;rounded=0;fontFamily=Times New Roman;fontSize=16;" parent="1" vertex="1">
          <mxGeometry x="855" y="485" width="60" height="30" as="geometry" />
        </mxCell>
        <mxCell id="ONXTietYf4f_hLQcdqCw-1" value="" style="rhombus;whiteSpace=wrap;html=1;" vertex="1" parent="1">
          <mxGeometry x="197.25" y="230" width="234.5" height="150" as="geometry" />
        </mxCell>
        <mxCell id="ONXTietYf4f_hLQcdqCw-2" value="&lt;font size=&quot;1&quot; face=&quot;Times New Roman&quot;&gt;&lt;b style=&quot;font-size: 17px;&quot;&gt;Verificar Permissões&lt;br&gt;Usuário cadastrado?&lt;br&gt;&lt;/b&gt;&lt;/font&gt;" style="text;html=1;strokeColor=none;fillColor=none;align=center;verticalAlign=middle;whiteSpace=wrap;rounded=0;" vertex="1" parent="1">
          <mxGeometry x="232" y="289" width="160" height="30" as="geometry" />
        </mxCell>
        <mxCell id="ONXTietYf4f_hLQcdqCw-3" value="" style="endArrow=classic;html=1;rounded=0;" edge="1" parent="1">
          <mxGeometry width="50" height="50" relative="1" as="geometry">
            <mxPoint x="431" y="304.5" as="sourcePoint" />
            <mxPoint x="501" y="304.5" as="targetPoint" />
          </mxGeometry>
        </mxCell>
        <mxCell id="ONXTietYf4f_hLQcdqCw-4" value="&lt;font style=&quot;font-size: 17px;&quot; face=&quot;Times New Roman&quot;&gt;&lt;b&gt;NÃO&lt;/b&gt;&lt;/font&gt;" style="text;html=1;strokeColor=none;fillColor=none;align=center;verticalAlign=middle;whiteSpace=wrap;rounded=0;" vertex="1" parent="1">
          <mxGeometry x="431.75" y="270" width="60" height="30" as="geometry" />
        </mxCell>
        <mxCell id="ONXTietYf4f_hLQcdqCw-5" value="&lt;font style=&quot;font-size: 17px;&quot; face=&quot;Times New Roman&quot;&gt;&lt;b&gt;SIM&lt;/b&gt;&lt;/font&gt;" style="text;html=1;strokeColor=none;fillColor=none;align=center;verticalAlign=middle;whiteSpace=wrap;rounded=0;" vertex="1" parent="1">
          <mxGeometry x="250" y="390" width="60" height="30" as="geometry" />
        </mxCell>
        <mxCell id="ONXTietYf4f_hLQcdqCw-8" value="" style="rounded=0;whiteSpace=wrap;html=1;" vertex="1" parent="1">
          <mxGeometry x="503" y="260" width="257" height="80" as="geometry" />
        </mxCell>
        <mxCell id="ONXTietYf4f_hLQcdqCw-9" value="&lt;font size=&quot;1&quot; face=&quot;Times New Roman&quot;&gt;&lt;b style=&quot;font-size: 17px;&quot;&gt;Cadastrar Usuário&lt;/b&gt;&lt;/font&gt;" style="text;html=1;strokeColor=none;fillColor=none;align=center;verticalAlign=middle;whiteSpace=wrap;rounded=0;" vertex="1" parent="1">
          <mxGeometry x="550" y="289" width="160" height="30" as="geometry" />
        </mxCell>
        <mxCell id="ONXTietYf4f_hLQcdqCw-10" value="&lt;font style=&quot;font-size: 15px;&quot; face=&quot;Times New Roman&quot;&gt;&lt;b&gt;Visualizar Agenda&lt;/b&gt;&lt;/font&gt;" style="text;html=1;strokeColor=none;fillColor=none;align=center;verticalAlign=middle;whiteSpace=wrap;rounded=0;" vertex="1" parent="1">
          <mxGeometry x="235.5" y="470" width="170" height="30" as="geometry" />
        </mxCell>
        <mxCell id="ONXTietYf4f_hLQcdqCw-11" value="" style="rounded=0;whiteSpace=wrap;html=1;" vertex="1" parent="1">
          <mxGeometry x="220" y="570" width="200" height="70" as="geometry" />
        </mxCell>
        <mxCell id="ONXTietYf4f_hLQcdqCw-12" value="" style="endArrow=classic;html=1;rounded=0;" edge="1" parent="1">
          <mxGeometry width="50" height="50" relative="1" as="geometry">
            <mxPoint x="320" y="530" as="sourcePoint" />
            <mxPoint x="320" y="570" as="targetPoint" />
          </mxGeometry>
        </mxCell>
        <mxCell id="ONXTietYf4f_hLQcdqCw-13" value="&lt;font face=&quot;Times New Roman&quot; style=&quot;font-size: 17px;&quot;&gt;&lt;b&gt;Filtrar por Período&lt;/b&gt;&lt;/font&gt;" style="text;html=1;strokeColor=none;fillColor=none;align=center;verticalAlign=middle;whiteSpace=wrap;rounded=0;" vertex="1" parent="1">
          <mxGeometry x="247.5" y="590" width="150" height="30" as="geometry" />
        </mxCell>
        <mxCell id="ONXTietYf4f_hLQcdqCw-14" value="" style="endArrow=classic;html=1;rounded=0;exitX=0.5;exitY=1;exitDx=0;exitDy=0;" edge="1" parent="1" source="ONXTietYf4f_hLQcdqCw-11">
          <mxGeometry width="50" height="50" relative="1" as="geometry">
            <mxPoint x="255" y="640" as="sourcePoint" />
            <mxPoint x="320" y="680" as="targetPoint" />
          </mxGeometry>
        </mxCell>
        <mxCell id="ONXTietYf4f_hLQcdqCw-15" value="" style="rounded=0;whiteSpace=wrap;html=1;" vertex="1" parent="1">
          <mxGeometry x="213.75" y="920" width="210" height="70" as="geometry" />
        </mxCell>
        <mxCell id="ONXTietYf4f_hLQcdqCw-16" style="edgeStyle=orthogonalEdgeStyle;rounded=0;orthogonalLoop=1;jettySize=auto;html=1;exitX=0.5;exitY=1;exitDx=0;exitDy=0;entryX=0.534;entryY=-0.011;entryDx=0;entryDy=0;entryPerimeter=0;" edge="1" parent="1">
          <mxGeometry relative="1" as="geometry">
            <mxPoint x="317" y="880" as="sourcePoint" />
            <mxPoint x="321" y="919" as="targetPoint" />
          </mxGeometry>
        </mxCell>
        <mxCell id="ONXTietYf4f_hLQcdqCw-17" value="&lt;font style=&quot;font-size: 17px;&quot;&gt;&lt;b&gt;Criar Reserva&lt;/b&gt;&lt;/font&gt;" style="text;html=1;strokeColor=none;fillColor=none;align=center;verticalAlign=middle;whiteSpace=wrap;rounded=0;fontFamily=Times New Roman;fontSize=16;" vertex="1" parent="1">
          <mxGeometry x="241.25" y="940" width="160" height="30" as="geometry" />
        </mxCell>
        <mxCell id="ONXTietYf4f_hLQcdqCw-18" value="" style="rounded=0;whiteSpace=wrap;html=1;" vertex="1" parent="1">
          <mxGeometry x="215.5" y="1050" width="210" height="70" as="geometry" />
        </mxCell>
        <mxCell id="ONXTietYf4f_hLQcdqCw-19" value="&lt;b&gt;Selecionar Laboratório&lt;/b&gt;" style="text;html=1;strokeColor=none;fillColor=none;align=center;verticalAlign=middle;whiteSpace=wrap;rounded=0;fontFamily=Times New Roman;fontSize=16;" vertex="1" parent="1">
          <mxGeometry x="243.5" y="1070" width="160" height="30" as="geometry" />
        </mxCell>
        <mxCell id="ONXTietYf4f_hLQcdqCw-20" value="" style="endArrow=classic;html=1;rounded=0;exitX=0.5;exitY=1;exitDx=0;exitDy=0;" edge="1" parent="1" source="ONXTietYf4f_hLQcdqCw-15">
          <mxGeometry width="50" height="50" relative="1" as="geometry">
            <mxPoint x="318.25" y="1010" as="sourcePoint" />
            <mxPoint x="318.25" y="1050" as="targetPoint" />
          </mxGeometry>
        </mxCell>
        <mxCell id="ONXTietYf4f_hLQcdqCw-21" value="" style="rounded=0;whiteSpace=wrap;html=1;" vertex="1" parent="1">
          <mxGeometry x="213.75" y="1180" width="210" height="70" as="geometry" />
        </mxCell>
        <mxCell id="ONXTietYf4f_hLQcdqCw-22" value="&lt;b&gt;Escolher Data e Horário&lt;/b&gt;" style="text;html=1;strokeColor=none;fillColor=none;align=center;verticalAlign=middle;whiteSpace=wrap;rounded=0;fontFamily=Times New Roman;fontSize=16;" vertex="1" parent="1">
          <mxGeometry x="241.75" y="1200" width="160" height="30" as="geometry" />
        </mxCell>
        <mxCell id="ONXTietYf4f_hLQcdqCw-23" value="" style="endArrow=classic;html=1;rounded=0;exitX=0.5;exitY=1;exitDx=0;exitDy=0;" edge="1" parent="1">
          <mxGeometry width="50" height="50" relative="1" as="geometry">
            <mxPoint x="317.25" y="1120" as="sourcePoint" />
            <mxPoint x="316.5" y="1180" as="targetPoint" />
          </mxGeometry>
        </mxCell>
        <mxCell id="ONXTietYf4f_hLQcdqCw-24" value="" style="rounded=0;whiteSpace=wrap;html=1;" vertex="1" parent="1">
          <mxGeometry x="212.5" y="1310" width="210" height="70" as="geometry" />
        </mxCell>
        <mxCell id="ONXTietYf4f_hLQcdqCw-25" value="&lt;b&gt;Verificar Disponibilidade&lt;/b&gt;" style="text;html=1;strokeColor=none;fillColor=none;align=center;verticalAlign=middle;whiteSpace=wrap;rounded=0;fontFamily=Times New Roman;fontSize=16;" vertex="1" parent="1">
          <mxGeometry x="240.5" y="1330" width="160" height="30" as="geometry" />
        </mxCell>
        <mxCell id="ONXTietYf4f_hLQcdqCw-26" value="" style="endArrow=classic;html=1;rounded=0;exitX=0.5;exitY=1;exitDx=0;exitDy=0;" edge="1" parent="1">
          <mxGeometry width="50" height="50" relative="1" as="geometry">
            <mxPoint x="316" y="1250" as="sourcePoint" />
            <mxPoint x="315.25" y="1310" as="targetPoint" />
          </mxGeometry>
        </mxCell>
        <mxCell id="ONXTietYf4f_hLQcdqCw-27" value="" style="rounded=0;whiteSpace=wrap;html=1;" vertex="1" parent="1">
          <mxGeometry x="503" y="1310" width="210" height="70" as="geometry" />
        </mxCell>
        <mxCell id="ONXTietYf4f_hLQcdqCw-28" value="" style="rounded=0;whiteSpace=wrap;html=1;" vertex="1" parent="1">
          <mxGeometry x="780" y="1310" width="210" height="70" as="geometry" />
        </mxCell>
        <mxCell id="ONXTietYf4f_hLQcdqCw-29" value="" style="endArrow=classic;html=1;rounded=0;entryX=-0.014;entryY=0.609;entryDx=0;entryDy=0;entryPerimeter=0;" edge="1" parent="1" target="ONXTietYf4f_hLQcdqCw-27">
          <mxGeometry width="50" height="50" relative="1" as="geometry">
            <mxPoint x="420" y="1353" as="sourcePoint" />
            <mxPoint x="475.5" y="1300" as="targetPoint" />
          </mxGeometry>
        </mxCell>
        <mxCell id="ONXTietYf4f_hLQcdqCw-30" value="" style="endArrow=classic;html=1;rounded=0;exitX=1;exitY=0.5;exitDx=0;exitDy=0;entryX=0;entryY=0.5;entryDx=0;entryDy=0;" edge="1" parent="1" source="ONXTietYf4f_hLQcdqCw-27" target="ONXTietYf4f_hLQcdqCw-28">
          <mxGeometry width="50" height="50" relative="1" as="geometry">
            <mxPoint x="720" y="1350" as="sourcePoint" />
            <mxPoint x="770" y="1300" as="targetPoint" />
          </mxGeometry>
        </mxCell>
        <mxCell id="ONXTietYf4f_hLQcdqCw-31" value="" style="rounded=0;whiteSpace=wrap;html=1;" vertex="1" parent="1">
          <mxGeometry x="503" y="1180" width="210" height="70" as="geometry" />
        </mxCell>
        <mxCell id="ONXTietYf4f_hLQcdqCw-32" value="" style="rounded=0;whiteSpace=wrap;html=1;" vertex="1" parent="1">
          <mxGeometry x="780" y="1190" width="210" height="70" as="geometry" />
        </mxCell>
        <mxCell id="ONXTietYf4f_hLQcdqCw-33" value="" style="rounded=0;whiteSpace=wrap;html=1;" vertex="1" parent="1">
          <mxGeometry x="780" y="1040" width="210" height="70" as="geometry" />
        </mxCell>
        <mxCell id="ONXTietYf4f_hLQcdqCw-34" value="&lt;b&gt;Estender Reserva&lt;/b&gt;" style="text;html=1;strokeColor=none;fillColor=none;align=center;verticalAlign=middle;whiteSpace=wrap;rounded=0;fontFamily=Times New Roman;fontSize=16;" vertex="1" parent="1">
          <mxGeometry x="810" y="1330" width="160" height="30" as="geometry" />
        </mxCell>
        <mxCell id="ONXTietYf4f_hLQcdqCw-35" value="&lt;b&gt;Reservar Laboratório&lt;/b&gt;" style="text;html=1;strokeColor=none;fillColor=none;align=center;verticalAlign=middle;whiteSpace=wrap;rounded=0;fontFamily=Times New Roman;fontSize=16;" vertex="1" parent="1">
          <mxGeometry x="540" y="1330" width="160" height="30" as="geometry" />
        </mxCell>
        <mxCell id="ONXTietYf4f_hLQcdqCw-37" value="&lt;b&gt;Registrar Devolução de Chave&lt;/b&gt;" style="text;html=1;strokeColor=none;fillColor=none;align=center;verticalAlign=middle;whiteSpace=wrap;rounded=0;fontFamily=Times New Roman;fontSize=16;" vertex="1" parent="1">
          <mxGeometry x="810" y="1060" width="160" height="30" as="geometry" />
        </mxCell>
        <mxCell id="ONXTietYf4f_hLQcdqCw-38" value="&lt;b&gt;Registrar Empréstimo de Chave&lt;/b&gt;" style="text;html=1;strokeColor=none;fillColor=none;align=center;verticalAlign=middle;whiteSpace=wrap;rounded=0;fontFamily=Times New Roman;fontSize=16;" vertex="1" parent="1">
          <mxGeometry x="805" y="1210" width="160" height="30" as="geometry" />
        </mxCell>
        <mxCell id="ONXTietYf4f_hLQcdqCw-39" value="&lt;b&gt;Cancelar Reserva&lt;/b&gt;" style="text;html=1;strokeColor=none;fillColor=none;align=center;verticalAlign=middle;whiteSpace=wrap;rounded=0;fontFamily=Times New Roman;fontSize=16;" vertex="1" parent="1">
          <mxGeometry x="528" y="1200" width="160" height="30" as="geometry" />
        </mxCell>
        <mxCell id="ONXTietYf4f_hLQcdqCw-40" value="" style="endArrow=classic;html=1;rounded=0;exitX=0.466;exitY=-0.066;exitDx=0;exitDy=0;exitPerimeter=0;entryX=0.466;entryY=1;entryDx=0;entryDy=0;entryPerimeter=0;" edge="1" parent="1" source="ONXTietYf4f_hLQcdqCw-27" target="ONXTietYf4f_hLQcdqCw-31">
          <mxGeometry width="50" height="50" relative="1" as="geometry">
            <mxPoint x="650" y="1250" as="sourcePoint" />
            <mxPoint x="700" y="1200" as="targetPoint" />
          </mxGeometry>
        </mxCell>
        <mxCell id="ONXTietYf4f_hLQcdqCw-41" value="" style="endArrow=classic;html=1;rounded=0;exitX=0.5;exitY=0;exitDx=0;exitDy=0;entryX=0.5;entryY=1;entryDx=0;entryDy=0;" edge="1" parent="1" source="ONXTietYf4f_hLQcdqCw-28" target="ONXTietYf4f_hLQcdqCw-32">
          <mxGeometry width="50" height="50" relative="1" as="geometry">
            <mxPoint x="870" y="1310" as="sourcePoint" />
            <mxPoint x="920" y="1260" as="targetPoint" />
          </mxGeometry>
        </mxCell>
        <mxCell id="ONXTietYf4f_hLQcdqCw-42" value="" style="endArrow=classic;html=1;rounded=0;entryX=0.5;entryY=1;entryDx=0;entryDy=0;" edge="1" parent="1" target="ONXTietYf4f_hLQcdqCw-33">
          <mxGeometry width="50" height="50" relative="1" as="geometry">
            <mxPoint x="885" y="1190" as="sourcePoint" />
            <mxPoint x="884.5" y="1150" as="targetPoint" />
          </mxGeometry>
        </mxCell>
        <mxCell id="ONXTietYf4f_hLQcdqCw-43" value="" style="rounded=0;whiteSpace=wrap;html=1;" vertex="1" parent="1">
          <mxGeometry x="780" y="920" width="210" height="70" as="geometry" />
        </mxCell>
        <mxCell id="ONXTietYf4f_hLQcdqCw-44" value="&lt;b&gt;Gerar Relatório&lt;/b&gt;" style="text;html=1;strokeColor=none;fillColor=none;align=center;verticalAlign=middle;whiteSpace=wrap;rounded=0;fontFamily=Times New Roman;fontSize=16;" vertex="1" parent="1">
          <mxGeometry x="800" y="940" width="160" height="30" as="geometry" />
        </mxCell>
        <mxCell id="ONXTietYf4f_hLQcdqCw-45" value="" style="endArrow=classic;html=1;rounded=0;exitX=0.5;exitY=0;exitDx=0;exitDy=0;" edge="1" parent="1">
          <mxGeometry width="50" height="50" relative="1" as="geometry">
            <mxPoint x="882" y="1040" as="sourcePoint" />
            <mxPoint x="882" y="990" as="targetPoint" />
          </mxGeometry>
        </mxCell>
        <mxCell id="ONXTietYf4f_hLQcdqCw-46" value="" style="rounded=0;whiteSpace=wrap;html=1;" vertex="1" parent="1">
          <mxGeometry x="775" y="770" width="210" height="70" as="geometry" />
        </mxCell>
        <mxCell id="ONXTietYf4f_hLQcdqCw-47" value="&lt;b&gt;Escolher Critérios de Filtro&lt;/b&gt;" style="text;html=1;strokeColor=none;fillColor=none;align=center;verticalAlign=middle;whiteSpace=wrap;rounded=0;fontFamily=Times New Roman;fontSize=16;" vertex="1" parent="1">
          <mxGeometry x="805" y="790" width="160" height="30" as="geometry" />
        </mxCell>
        <mxCell id="ONXTietYf4f_hLQcdqCw-48" value="" style="endArrow=classic;html=1;rounded=0;entryX=0.5;entryY=1;entryDx=0;entryDy=0;" edge="1" parent="1" target="ONXTietYf4f_hLQcdqCw-46">
          <mxGeometry width="50" height="50" relative="1" as="geometry">
            <mxPoint x="880" y="920" as="sourcePoint" />
            <mxPoint x="879.5" y="880" as="targetPoint" />
          </mxGeometry>
        </mxCell>
        <mxCell id="ONXTietYf4f_hLQcdqCw-49" value="" style="rounded=0;whiteSpace=wrap;html=1;" vertex="1" parent="1">
          <mxGeometry x="775" y="640" width="210" height="70" as="geometry" />
        </mxCell>
        <mxCell id="ONXTietYf4f_hLQcdqCw-50" value="&lt;b&gt;Mostrar Relatório&lt;/b&gt;" style="text;html=1;strokeColor=none;fillColor=none;align=center;verticalAlign=middle;whiteSpace=wrap;rounded=0;fontFamily=Times New Roman;fontSize=16;" vertex="1" parent="1">
          <mxGeometry x="805" y="660" width="160" height="30" as="geometry" />
        </mxCell>
        <mxCell id="ONXTietYf4f_hLQcdqCw-51" value="" style="endArrow=classic;html=1;rounded=0;entryX=0.5;entryY=1;entryDx=0;entryDy=0;" edge="1" parent="1" target="ONXTietYf4f_hLQcdqCw-49">
          <mxGeometry width="50" height="50" relative="1" as="geometry">
            <mxPoint x="880" y="770" as="sourcePoint" />
            <mxPoint x="879.5" y="750" as="targetPoint" />
          </mxGeometry>
        </mxCell>
        <mxCell id="ONXTietYf4f_hLQcdqCw-52" value="" style="endArrow=classic;html=1;rounded=0;exitX=0.5;exitY=0;exitDx=0;exitDy=0;" edge="1" parent="1" source="ONXTietYf4f_hLQcdqCw-49">
          <mxGeometry width="50" height="50" relative="1" as="geometry">
            <mxPoint x="650" y="670" as="sourcePoint" />
            <mxPoint x="880" y="530" as="targetPoint" />
          </mxGeometry>
        </mxCell>
        <mxCell id="ONXTietYf4f_hLQcdqCw-53" value="" style="endArrow=classic;html=1;rounded=0;exitX=0.437;exitY=1.017;exitDx=0;exitDy=0;exitPerimeter=0;entryX=1;entryY=0.5;entryDx=0;entryDy=0;" edge="1" parent="1" source="ONXTietYf4f_hLQcdqCw-8" target="1vuv9H1feYHXRxS0RQ_D-13">
          <mxGeometry width="50" height="50" relative="1" as="geometry">
            <mxPoint x="650" y="470" as="sourcePoint" />
            <mxPoint x="700" y="420" as="targetPoint" />
          </mxGeometry>
        </mxCell>
        <mxCell id="ONXTietYf4f_hLQcdqCw-55" value="Fluxograma de processos do projeto - Gerenciador de Reservas Laboratório/Sala" style="swimlane;whiteSpace=wrap;html=1;" vertex="1" parent="1">
          <mxGeometry x="70" y="-30" width="1010" height="1470" as="geometry" />
        </mxCell>
      </root>
    </mxGraphModel>
  </diagram>
</mxfile>
